<?xml version="1.0" standalone="no"?>
<!DOCTYPE svg PUBLIC "-//W3C//DTD SVG 20010904//EN"
 "http://www.w3.org/TR/2001/REC-SVG-20010904/DTD/svg10.dtd">
<svg version="1.0" xmlns="http://www.w3.org/2000/svg"
 width="255.000000pt" height="225.000000pt" viewBox="0 0 255.000000 225.000000"
 preserveAspectRatio="xMidYMid meet">

<g transform="translate(0.000000,225.000000) scale(0.100000,-0.100000)"
fill="#000000" stroke="none">
<path d="M512 2050 c-12 -5 -39 -21 -59 -34 -35 -24 -38 -25 -56 -8 -15 12
-21 14 -24 5 -3 -7 -13 -13 -22 -13 -10 0 -26 -9 -35 -19 -14 -16 -15 -23 -6
-41 9 -17 8 -32 -5 -71 -9 -29 -17 -96 -19 -159 -3 -60 -7 -113 -10 -118 -6
-10 14 -93 27 -109 5 -7 17 -13 26 -13 11 0 22 -19 34 -63 27 -90 60 -142 112
-173 32 -19 45 -32 45 -49 0 -21 -5 -23 -75 -27 -90 -6 -152 -39 -199 -106
-35 -50 -44 -128 -28 -236 26 -168 263 -429 502 -555 143 -75 373 -138 475
-129 l40 3 -3 50 c-1 27 -16 102 -33 165 -17 63 -33 124 -36 135 -4 17 1 20
34 23 70 4 200 80 341 199 42 36 50 48 43 61 -8 14 5 32 67 95 l77 77 2 73 c1
56 -2 75 -14 84 -15 12 -15 14 0 31 21 23 22 41 2 48 -11 4 -15 21 -15 55 l0
50 -97 -3 -98 -3 -3 -57 c-2 -32 -7 -58 -12 -58 -6 0 -10 -21 -10 -46 0 -79
-31 -226 -46 -220 -7 3 -16 1 -19 -3 -10 -16 -184 -131 -198 -131 -23 0 -31
33 -11 45 9 6 29 20 43 32 20 16 23 24 14 33 -9 10 -22 8 -58 -6 -40 -15 -48
-15 -55 -3 -8 13 -138 198 -167 238 -18 24 2 148 37 237 26 63 50 209 50 295
0 13 7 19 22 19 29 0 98 74 98 106 0 18 -23 50 -72 105 l-73 80 -48 -5 c-45
-5 -47 -4 -36 16 9 16 8 19 -3 16 -7 -3 -31 13 -53 35 -22 21 -49 43 -60 47
-29 11 -305 11 -333 0z m181 -146 c59 -9 106 -19 103 -21 -2 -3 -73 5 -158 17
-101 14 -178 20 -228 17 -51 -4 -67 -3 -50 3 34 13 203 5 333 -16z m-115 -31
c-16 -2 -40 -2 -55 0 -16 2 -3 4 27 4 30 0 43 -2 28 -4z m-195 -10 c-7 -2 -19
-2 -25 0 -7 3 -2 5 12 5 14 0 19 -2 13 -5z m345 0 c-10 -2 -28 -2 -40 0 -13 2
-5 4 17 4 22 1 32 -1 23 -4z m110 -10 c-10 -2 -26 -2 -35 0 -10 3 -2 5 17 5
19 0 27 -2 18 -5z m-118 -150 c0 -15 10 -18 68 -18 37 -1 84 -4 104 -8 35 -7
39 -12 53 -59 8 -28 15 -62 15 -74 0 -26 30 -37 48 -17 11 12 8 17 -9 15 -3
-1 -4 10 -1 24 3 19 7 22 18 13 28 -23 13 -96 -22 -105 -18 -5 -25 -17 -34
-57 -21 -101 -81 -168 -175 -197 -22 -7 -47 -18 -55 -25 -34 -29 -59 -26 -165
16 -82 32 -112 50 -132 75 -25 34 -72 154 -73 187 0 14 -5 17 -21 12 -14 -5
-25 -2 -30 6 -13 20 -11 92 1 84 6 -4 9 -12 8 -19 -2 -6 0 -13 5 -14 21 -6 27
1 27 36 0 66 8 79 55 91 24 6 78 11 119 11 60 0 76 3 76 14 0 11 15 16 53 19
28 2 55 4 60 5 4 1 7 -6 7 -15z m297 -285 c-3 -8 -6 -5 -6 6 -1 11 2 17 5 13
3 -3 4 -12 1 -19z m-28 -92 c-12 -36 -25 -64 -27 -61 -2 2 6 33 19 69 13 36
25 63 27 61 3 -2 -6 -34 -19 -69z m696 -179 c1 -85 -3 -121 -12 -129 -9 -7
-10 -15 -4 -22 6 -7 4 -18 -4 -29 -11 -16 -25 -18 -89 -15 -51 2 -76 -1 -76
-8 0 -7 10 -9 25 -6 19 3 25 0 26 -14 1 -17 2 -17 6 -1 3 13 15 17 53 17 27 0
52 -5 55 -10 4 -6 12 -7 18 -4 7 4 -17 -23 -53 -60 -35 -36 -69 -66 -74 -66
-13 0 -101 84 -98 94 10 30 32 169 34 211 l1 50 7 -50 c6 -41 7 -32 8 51 1 55
4 103 7 106 3 3 42 5 88 4 l82 -1 0 -118z m-728 21 c-2 -18 -4 -6 -4 27 0 33
2 48 4 33 2 -15 2 -42 0 -60z m-151 26 c-3 -9 -6 -22 -6 -30 0 -12 -4 -12 -20
-4 -25 13 -26 37 -2 43 31 8 34 7 28 -9z m-186 -25 c43 -24 57 -24 95 -1 l30
18 33 -74 c27 -58 33 -82 28 -110 -3 -21 -9 -59 -12 -87 -9 -77 -16 -85 -28
-29 -10 49 -16 55 -94 114 -111 83 -136 117 -133 178 1 26 18 24 81 -9z m1100
-13 c0 -3 -4 -8 -10 -11 -5 -3 -10 -1 -10 4 0 6 5 11 10 11 6 0 10 -2 10 -4z
m0 -81 c0 -8 -7 -15 -15 -15 -16 0 -20 12 -8 23 11 12 23 8 23 -8z m-2 -57
c-3 -7 -15 -15 -28 -16 -21 -3 -22 -2 -11 12 16 19 44 21 39 4z m2 -57 c0 -6
-5 -13 -10 -16 -15 -9 -43 3 -35 15 8 13 45 13 45 1z m-475 -111 c-3 -5 -26
-22 -51 -36 -34 -20 -42 -29 -32 -36 9 -6 6 -7 -9 -3 -12 3 -24 1 -28 -5 -3
-6 3 -10 14 -10 25 0 27 -22 6 -40 -12 -10 -13 -15 -3 -21 9 -6 8 -12 -5 -27
-9 -10 -14 -22 -10 -25 3 -4 -2 -16 -12 -27 -18 -20 -34 -24 -131 -35 l-51 -5
-22 52 c-21 51 -21 53 -3 68 11 8 39 31 63 51 24 20 55 40 69 43 19 6 21 5 10
-3 -29 -21 1 -11 88 29 87 40 118 48 107 30z"/>
<path d="M453 1635 c-36 -15 -41 -31 -18 -61 15 -18 15 -18 9 7 -3 15 -1 30 5
33 6 4 11 0 11 -8 0 -35 23 -66 50 -66 34 0 50 17 50 52 0 15 6 28 13 29 19 1
-45 28 -68 28 -11 0 -35 -6 -52 -14z m87 -40 c0 -8 -4 -15 -9 -15 -13 0 -22
16 -14 24 11 11 23 6 23 -9z"/>
<path d="M764 1641 c-26 -11 -43 -34 -19 -25 11 5 16 2 14 -7 -2 -8 0 -26 4
-41 6 -22 13 -28 36 -28 33 0 52 19 55 54 0 14 6 22 13 19 8 -3 11 -15 7 -32
l-6 -26 17 23 c17 23 17 25 -2 44 -23 22 -87 32 -119 19z m78 -46 c0 -5 -5
-11 -11 -13 -6 -2 -11 4 -11 13 0 9 5 15 11 13 6 -2 11 -8 11 -13z"/>
<path d="M685 1570 c2 -14 5 -30 5 -37 0 -6 11 -25 25 -41 l24 -29 -37 -21
c-33 -18 -42 -19 -82 -9 -25 6 -48 16 -51 20 -10 13 -92 19 -108 8 -12 -8 -9
-15 15 -44 43 -52 93 -76 165 -82 47 -4 59 -3 44 5 -17 8 -15 9 10 5 18 -3 47
1 69 10 46 19 60 13 19 -8 -62 -32 -191 -38 -235 -11 -21 13 12 -35 38 -55 20
-16 41 -21 85 -21 68 0 102 23 140 94 13 26 27 46 31 46 7 0 38 53 38 65 0 3
-28 5 -63 5 -72 0 -95 16 -122 85 -8 22 -13 29 -10 15z"/>
<path d="M675 1230 c-28 -7 -28 -8 -5 -9 14 0 32 4 40 9 17 11 8 11 -35 0z"/>
<path d="M1898 1359 c-14 -7 -18 -23 -18 -61 0 -41 -8 -66 -40 -124 -57 -104
-54 -186 10 -222 l30 -17 0 -237 0 -238 -30 0 c-35 0 -50 -23 -50 -78 0 -47 9
-52 85 -52 38 0 59 6 76 20 l24 19 -73 1 -73 0 3 28 3 27 111 3 c96 2 114 5
129 22 18 20 17 20 -43 20 l-62 0 0 180 0 180 95 0 95 0 0 -142 1 -143 19 24
c18 20 20 39 20 145 0 83 -4 128 -13 139 -11 15 -28 17 -127 15 l-115 -3 -5
-200 c-4 -169 -7 -200 -20 -200 -13 0 -15 34 -18 231 l-2 232 34 20 34 20 41
-20 c41 -20 41 -20 81 0 40 19 40 19 80 0 40 -20 40 -20 80 0 40 19 41 19 78
1 35 -19 38 -19 50 -2 11 16 10 18 -10 21 -38 6 -58 31 -58 74 l0 38 55 0 c42
0 55 3 55 15 0 12 -13 15 -55 15 l-55 0 0 44 c0 70 5 76 66 76 41 0 54 4 54
15 0 13 -38 15 -262 17 l-263 3 -3 33 c-3 32 -3 32 42 32 46 0 69 16 45 31
-19 12 -80 11 -101 -2z m99 -143 c-3 -8 -11 -32 -18 -55 l-12 -41 -54 0 c-29
0 -53 2 -53 5 0 3 11 28 25 55 25 49 26 50 71 50 35 0 45 -3 41 -14z m153 5
c0 -5 -5 -32 -12 -60 l-11 -51 -63 0 -63 0 21 60 22 60 53 0 c29 0 53 -4 53
-9z m136 -28 c-3 -21 -6 -46 -6 -55 0 -15 -9 -18 -55 -18 -30 0 -55 2 -55 5 0
2 5 27 11 55 l11 50 50 0 51 0 -7 -37z m-326 -150 c0 -43 -24 -73 -58 -73 -39
0 -62 27 -62 72 l0 38 60 0 60 0 0 -37z m160 0 c0 -43 -24 -73 -58 -73 -39 0
-62 27 -62 72 l0 38 60 0 60 0 0 -37z m160 0 c0 -43 -24 -73 -58 -73 -39 0
-62 27 -62 72 l0 38 60 0 60 0 0 -37z"/>
<path d="M2065 1360 c-16 -25 14 -30 191 -30 177 0 184 1 184 20 0 19 -7 20
-184 20 -113 0 -187 -4 -191 -10z"/>
<path d="M2253 873 c-9 -3 -13 -37 -13 -121 0 -104 2 -114 15 -96 10 13 14 45
15 101 l0 82 42 3 c31 2 44 8 46 21 3 14 -4 17 -45 16 -26 0 -54 -3 -60 -6z"/>
<path d="M2104 687 c-9 -25 0 -62 16 -62 10 0 15 10 15 34 0 36 -21 54 -31 28z"/>
</g>
</svg>
