<?xml version="1.0" standalone="no"?>
<!DOCTYPE svg PUBLIC "-//W3C//DTD SVG 20010904//EN"
 "http://www.w3.org/TR/2001/REC-SVG-20010904/DTD/svg10.dtd">
<svg version="1.0" xmlns="http://www.w3.org/2000/svg"
 width="400.000000pt" height="400.000000pt" viewBox="0 0 400.000000 400.000000"
 preserveAspectRatio="xMidYMid meet">

<g transform="translate(0.000000,400.000000) scale(0.100000,-0.100000)"
fill="#000000" stroke="none">
<path d="M1760 3530 c-308 -82 -506 -316 -427 -503 l16 -37 -39 -38 c-46 -43
-70 -118 -70 -213 0 -62 23 -187 40 -216 5 -10 19 -39 30 -65 17 -42 23 -48
49 -48 37 0 32 -18 70 253 16 115 32 211 34 213 3 3 40 -12 83 -34 85 -42 203
-83 299 -104 84 -17 329 -15 441 5 88 16 257 69 281 89 7 5 13 5 17 -1 4 -5
18 -92 31 -193 33 -240 30 -228 64 -228 30 0 33 4 75 102 58 135 63 325 10
406 -15 22 -13 26 29 75 24 29 57 71 72 95 24 36 26 45 14 53 -8 5 -20 9 -27
9 -29 0 -188 62 -280 109 -91 47 -151 85 -322 202 -93 64 -152 81 -295 85 -97
3 -135 0 -195 -16z"/>
<path d="M2805 2520 c10 -11 20 -20 23 -20 3 0 -3 9 -13 20 -10 11 -20 20 -23
20 -3 0 3 -9 13 -20z"/>
<path d="M1644 2471 c-30 -18 -52 -41 -40 -41 3 0 20 9 38 20 44 26 113 26
157 -1 41 -25 49 -20 16 11 -35 33 -127 39 -171 11z"/>
<path d="M2263 2470 c-18 -11 -33 -24 -33 -30 0 -15 7 -13 40 11 23 18 38 21
84 17 35 -3 63 -12 76 -23 21 -19 38 -15 25 5 -25 40 -140 52 -192 20z"/>
<path d="M1682 2358 c-18 -18 -14 -53 9 -74 19 -17 23 -17 47 -3 30 16 40 52
22 75 -15 17 -61 19 -78 2z"/>
<path d="M2861 2344 c0 -11 3 -14 6 -6 3 7 2 16 -1 19 -3 4 -6 -2 -5 -13z"/>
<path d="M2298 2324 c-21 -45 21 -87 66 -66 28 13 36 58 14 80 -22 22 -67 14
-80 -14z"/>
<path d="M3844 2005 c0 -60 1 -84 3 -52 2 32 2 81 0 110 -2 29 -3 3 -3 -58z"/>
<path d="M2671 2053 c-1 -6 -4 -20 -7 -30 -5 -17 -5 -17 6 0 6 10 9 23 6 30
-3 9 -5 9 -5 0z"/>
<path d="M3832 1805 c0 -16 2 -22 5 -12 2 9 2 23 0 30 -3 6 -5 -1 -5 -18z"/>
<path d="M2519 1763 c-13 -16 -12 -17 4 -4 16 13 21 21 13 21 -2 0 -10 -8 -17
-17z"/>
<path d="M3821 1724 c0 -11 3 -14 6 -6 3 7 2 16 -1 19 -3 4 -6 -2 -5 -13z"/>
<path d="M2445 1678 l-40 -43 43 40 c39 36 47 45 39 45 -2 0 -21 -19 -42 -42z"/>
<path d="M3811 1664 c0 -11 3 -14 6 -6 3 7 2 16 -1 19 -3 4 -6 -2 -5 -13z"/>
<path d="M2379 1623 c-13 -16 -12 -17 4 -4 16 13 21 21 13 21 -2 0 -10 -8 -17
-17z"/>
<path d="M3747 1428 c-9 -29 -15 -54 -13 -56 2 -2 12 20 21 48 9 28 15 53 13
55 -2 3 -12 -19 -21 -47z"/>
<path d="M1992 1203 l-43 -86 24 -24 c24 -24 24 -25 10 -91 -27 -128 -103
-553 -103 -574 0 -11 35 -70 78 -130 l77 -108 26 30 c14 16 51 68 83 114 l58
85 -31 173 c-18 95 -46 242 -63 326 l-30 154 32 33 32 33 -51 76 c-29 42 -53
76 -54 76 -1 0 -22 -39 -45 -87z"/>
<path d="M3600 1100 c-6 -11 -8 -20 -6 -20 3 0 10 9 16 20 6 11 8 20 6 20 -3
0 -10 -9 -16 -20z"/>
<path d="M3439 863 l-24 -28 28 24 c25 23 32 31 24 31 -2 0 -14 -12 -28 -27z"/>
<path d="M3370 785 c-24 -25 -42 -45 -39 -45 3 0 25 20 49 45 24 25 42 45 39
45 -3 0 -25 -20 -49 -45z"/>
</g>
</svg>
